# xmcd
#
# Track frame offsets: 
#        150
#        18273
#        34355
#        55521
#        77508
#        92707
#        110205
#        133842
#        174181
#        191712
#
# Disc length: 2882 seconds
#
# Revision: 0
# Processed by: cddbd v1.4PL0 Copyright (c) Steve Scherf et al.
# Submitted via: ExactAudioCopy v0.90a11
#
DISCID=7d0b400a
DTITLE=Poutnici - Krajni meze
DYEAR=1900
DGENRE=
TTITLE0=Kralovna poolu
TTITLE1=Vaska
TTITLE2=Cherokee Bend
TTITLE3=Dopis
TTITLE4=Jizni pol
TTITLE5=Klara
TTITLE6=Rogalo blues
TTITLE7=Tango pro Astora
TTITLE8=Corrida 2
TTITLE9=Krajni meze
EXTD=
EXTT0=
EXTT1=
EXTT2=
EXTT3=
EXTT4=
EXTT5=
EXTT6=
EXTT7=
EXTT8=
EXTT9=
PLAYORDER=
